<svg width="1440" height="658" viewBox="0 0 1440 658" fill="#FFFFF" xmlns="http://www.w3.org/2000/svg" style="fill:white"
>
<path fill-rule="evenodd" clip-rule="evenodd" d="M1017.94 600.249C950.257 592.81 881.984 585.307 814.571 585.345C735.556 585.389 653.73 597.441 572.543 609.398C388.281 636.537 207.31 663.191 69.9732 547.882C44.0869 526.148 20.8193 502.266 3.89284e-06 476.589V-6.29619e-05H1442V566.712C1313.93 632.778 1167.38 616.671 1017.94 600.249ZM1442 566.712C1453.38 560.841 1464.62 554.321 1475.69 547.094C1689.41 407.678 1847.26 166.673 1847.53 -88.4852C1847.75 -294.632 1702 -451.19 1558.85 -604.952C1531.12 -634.742 1503.48 -664.427 1477.03 -694.347C1448.91 -726.143 1421.24 -759.447 1393.44 -792.907C1260.26 -953.222 1124.13 -1117.09 921.596 -1135.6C685.901 -1157.14 491.612 -986.501 311.968 -828.722C302.327 -820.255 292.729 -811.825 283.168 -803.463C94.202 -638.194 -95.6404 -459.682 -134.761 -211.718C-171.977 24.1768 -147.1 295.171 3.89284e-06 476.589V658H1442V566.712Z" fill="#FFFFF"/>
</svg>
